<svg xmlns="http://www.w3.org/2000/svg" viewBox="0 0 1200 800" role="img" aria-label="Abstract">
  <defs>
    <linearGradient id="a" x1="0" y1="0" x2="1" y2="1">
      <stop offset="0" stop-color="#1FA3A3" stop-opacity="0.9"/>
      <stop offset="1" stop-color="#2E6FA7" stop-opacity="0.9"/>
    </linearGradient>
    <radialGradient id="b" cx="50%" cy="35%" r="60%">
      <stop offset="0" stop-color="#FFFFFF" stop-opacity="0.85"/>
      <stop offset="1" stop-color="#FFFFFF" stop-opacity="0"/>
    </radialGradient>
    <filter id="blur" x="-20%" y="-20%" width="140%" height="140%">
      <feGaussianBlur stdDeviation="26"/>
    </filter>
  </defs>
  <rect width="1200" height="800" fill="#0B3C5D"/>
  <circle cx="360" cy="260" r="220" fill="url(#a)" filter="url(#blur)" opacity="0.75"/>
  <circle cx="820" cy="380" r="260" fill="url(#a)" filter="url(#blur)" opacity="0.65"/>
  <circle cx="620" cy="240" r="320" fill="url(#b)" opacity="0.35"/>
  <g opacity="0.55" fill="none" stroke="#B8C2CC">
    <path d="M240 520c110-90 240-130 390-120 150 10 260 70 330 170" stroke-width="2"/>
    <path d="M220 570c120-100 260-145 420-135 165 10 285 78 360 195" stroke-width="2"/>
    <path d="M200 620c130-110 280-160 455-150 180 10 310 85 392 220" stroke-width="2"/>
  </g>
</svg>

